<svg width="31" height="24" viewBox="15 15 60 60" xmlns="http://www.w3.org/2000/svg" xmlns:xlink="http://www.w3.org/1999/xlink"><path d="M67.558546 39.8714292H42.0857966C40.8627004 39.8720094 39.8710953 40.8633548 39.8701949 42.0864508L39.8687448 47.623783C39.867826 48.8471055 40.8592652 49.8390642 42.0825879 49.8393845 42.0827874 49.8393846 42.0829869 49.8393846 42.0831864 49.8387862L57.5909484 49.838657C58.8142711 49.8386283 59.8059783 50.830319 59.8059885 52.0536417 59.8059885 52.0536479 59.8059885 52.053654 59.8059701 52.0536602V52.6073539 53.161115c0 3.6699681-2.97509700000001 6.645065-6.6450651 6.645065H32.1165505C30.8934034 59.806119 29.9018373 58.8145802 29.9017425 57.5914331L29.9011625 36.5491188C29.9008781 32.8791508 32.8758931 29.9039718 36.5458611 29.9038706 36.5459222 29.9038706 36.5459833 29.9038706 36.5460443 29.9040538H67.5523638C68.77515 29.9026795 69.7666266 28.9118177 69.7687593 27.6890325L69.7721938 22.1516997C69.774326 20.928378 68.7832423 19.9360642 67.5599198 19.9353054 67.5594619 19.9353051 67.5590039 19.935305 67.558546 19.9366784H36.5479677c-9.1749203.0-16.6126627 7.4377424-16.6126627 16.6126626V67.558546c0 1.2233227.991699000000001 2.2150216 2.2150217 2.2150216H54.8224984c8.2572476.0 14.9510692-6.69382160000001 14.9510692-14.9510692V42.0864509c0-1.2233227-.991698900000003-2.2150217-2.2150216-2.2150217z" id="G" fill="#fff"/></g></svg>