<?xml version="1.0" standalone="no"?>
<!DOCTYPE svg PUBLIC "-//W3C//DTD SVG 20010904//EN"
 "http://www.w3.org/TR/2001/REC-SVG-20010904/DTD/svg10.dtd">
<svg version="1.0" xmlns="http://www.w3.org/2000/svg"
 width="177.000000pt" height="177.000000pt" viewBox="0 0 177.000000 177.000000"
 preserveAspectRatio="xMidYMid meet">
<metadata>
Created by potrace 1.14, written by Peter Selinger 2001-2017
</metadata>
<g transform="translate(0.000000,177.000000) scale(0.100000,-0.100000)"
fill="#000000" stroke="none">
<path d="M830 1661 c-71 -22 -140 -82 -140 -122 0 -22 -11 -23 -59 -9 -19 5
-36 8 -39 6 -2 -2 6 -23 16 -45 11 -23 17 -41 12 -41 -4 0 -30 -20 -58 -45
-99 -89 -117 -203 -54 -337 25 -52 32 -81 32 -125 0 -32 -4 -63 -8 -69 -4 -6
-32 -19 -63 -28 -31 -8 -62 -23 -70 -32 -18 -22 -23 -161 -10 -268 12 -103 27
-124 114 -171 29 -16 56 -34 60 -42 5 -7 12 -11 16 -8 5 2 14 -2 21 -10 27
-32 73 -29 151 11 43 22 86 37 103 35 16 -1 39 5 52 14 21 13 23 13 18 0 -4
-8 -1 -21 5 -28 17 -22 -53 -126 -90 -134 -36 -7 -37 -16 -4 -31 43 -20 59
-14 132 43 61 47 75 54 102 49 23 -5 32 -2 37 10 9 22 13 21 89 -23 44 -26 96
-46 147 -57 44 -9 75 -20 70 -23 -21 -14 -20 -41 3 -65 19 -20 34 -26 67 -26
31 0 39 3 28 10 -10 6 -11 10 -2 10 7 0 12 13 12 30 0 17 -5 30 -11 30 -8 0
-8 4 1 15 6 8 9 19 5 24 -3 6 -10 77 -16 158 -10 142 -5 258 10 234 4 -6 8 5
8 25 1 27 -3 38 -17 41 -10 3 -16 11 -14 18 8 19 -27 35 -74 35 -43 0 -91 15
-183 56 -57 26 -59 28 -59 66 0 36 -2 38 -20 28 -19 -10 -20 -8 -20 40 0 37 7
61 25 90 14 22 30 40 36 40 21 0 39 70 39 149 0 125 -37 204 -125 268 l-30 21
28 13 c30 14 34 24 12 33 -17 6 -20 43 -5 80 12 31 6 32 -56 6 l-47 -21 -32
31 c-17 17 -47 35 -66 40 -38 11 -44 11 -79 1z m5 -30 c-6 -4 -32 -21 -60 -36
l-50 -27 39 36 c22 20 48 36 60 36 12 0 16 -4 11 -9z m255 -26 c0 -2 -18 -14
-41 -26 -23 -11 -38 -16 -34 -9 3 6 21 17 38 24 40 18 37 17 37 11z m-147
-253 c11 -9 26 -31 33 -48 24 -57 55 -217 61 -315 l6 -96 -33 -23 c-19 -13
-30 -19 -27 -13 4 7 3 15 -3 18 -6 4 -10 3 -9 -2 4 -22 -4 -34 -32 -49 -26
-13 -33 -14 -41 -2 -7 9 -8 8 -4 -6 6 -18 2 -19 -81 -13 -49 3 -108 12 -133
19 -41 13 -46 18 -66 71 -12 31 -18 55 -13 52 5 -4 9 2 9 12 0 12 6 8 20 -15
11 -18 18 -37 15 -42 -10 -16 13 -20 40 -8 22 10 25 17 23 54 -2 23 -5 41 -7
38 -2 -2 -15 6 -29 16 -13 11 -31 20 -40 20 -11 0 -12 3 -4 13 8 10 5 12 -16
11 -23 -1 -27 -5 -24 -26 2 -15 -2 -30 -9 -34 -9 -5 -10 -2 -6 10 4 10 3 15
-3 11 -5 -3 -14 4 -20 15 -10 18 -7 22 24 35 20 8 42 15 50 15 8 0 14 8 13 18
-1 21 -40 22 -89 3 -23 -9 -29 -7 -38 9 -24 45 -5 148 26 136 8 -3 17 0 20 7
3 8 16 12 33 9 16 -2 56 7 91 22 35 14 67 23 71 20 4 -2 4 9 -1 26 -8 26 -6
31 13 34 12 3 40 9 62 15 50 12 93 6 118 -17z m257 -184 c21 -35 27 -63 10
-53 -6 3 -17 -1 -26 -9 -18 -18 -34 -13 -34 11 0 9 6 13 14 10 10 -4 13 -1 9
9 -3 7 -9 14 -14 14 -4 0 -6 7 -3 15 4 8 2 15 -4 15 -14 0 -35 -57 -28 -75 3
-8 2 -25 -3 -37 -6 -18 -9 -12 -18 30 -9 48 -8 54 13 77 32 34 60 32 84 -7z
m-24 -114 c-22 -19 -44 -34 -50 -34 -9 1 8 17 69 69 6 5 12 6 15 4 3 -3 -13
-20 -34 -39z m-666 -224 c0 -5 -7 -10 -16 -10 -9 0 -32 -9 -50 -21 -28 -17
-34 -18 -34 -5 0 16 35 40 48 33 4 -3 16 -1 27 4 11 4 21 8 23 8 1 1 2 -3 2
-9z m475 -20 c3 -5 2 -10 -4 -10 -5 0 -13 5 -16 10 -3 6 -2 10 4 10 5 0 13 -4
16 -10z m-45 -25 c0 -8 -4 -15 -9 -15 -13 0 -22 16 -14 24 11 11 23 6 23 -9z
m312 -36 c62 -27 114 -43 156 -46 49 -5 60 -8 51 -19 -19 -23 -62 -25 -112 -6
-26 10 -44 22 -40 27 5 4 3 6 -2 2 -15 -8 -168 27 -158 36 4 5 0 5 -10 1 -14
-5 -17 0 -17 26 0 37 -4 38 132 -21z m-762 29 c0 -6 7 -20 17 -30 15 -17 15
-18 0 -18 -10 0 -17 4 -17 10 0 5 -7 7 -15 4 -8 -4 -15 -1 -15 6 0 6 -5 8 -12
4 -7 -4 -4 2 6 14 21 24 36 28 36 10z m130 0 c0 -8 3 -9 8 -3 9 13 82 18 82 5
0 -6 17 -10 38 -10 20 0 53 -5 72 -11 61 -18 73 -19 89 -6 14 11 14 10 2 -6
-25 -31 -72 -60 -112 -67 -21 -4 -40 -4 -42 -1 -2 3 -2 0 0 -7 1 -8 3 -19 3
-26 0 -20 42 -35 69 -24 30 11 55 -7 31 -22 -8 -5 -12 -10 -8 -10 3 0 14 -3
22 -6 12 -5 15 -2 10 11 -4 10 -1 21 7 27 11 8 11 9 -3 5 -31 -10 -28 7 3 20
41 17 46 11 27 -29 -9 -18 -21 -45 -27 -60 -12 -33 -31 -37 -31 -7 0 13 4 18
13 13 7 -4 7 -2 -2 7 -10 11 -15 11 -18 2 -3 -7 -12 -13 -21 -13 -15 0 -15 -2
-2 -11 12 -9 11 -10 -5 -4 -47 15 -142 35 -172 35 -18 0 -33 5 -33 11 0 6 7 9
15 5 8 -3 15 -1 15 4 0 15 -37 12 -44 -2 -3 -7 -4 12 0 42 3 30 9 56 14 58 5
2 3 23 -5 48 -7 24 -9 44 -4 44 5 0 9 -6 9 -12z m-168 -51 c21 -9 60 -18 88
-20 42 -2 50 -5 50 -22 0 -12 -3 -16 -8 -9 -4 6 -33 14 -64 17 -63 6 -109 24
-116 46 -2 7 -1 12 4 9 5 -2 26 -12 46 -21z m499 -4 c-5 -20 -21 -34 -56 -52
-59 -28 -115 -39 -115 -22 0 6 9 11 21 11 25 0 52 14 108 57 24 18 45 33 47
33 1 0 -1 -12 -5 -27z m-502 -41 c19 -7 49 -12 67 -12 l32 0 -5 -117 c-3 -65
-9 -122 -13 -126 -6 -7 -46 12 -108 51 -9 6 -15 44 -18 123 -3 63 -2 109 3
103 4 -6 23 -16 42 -22z m841 -3 c80 -23 102 -35 98 -53 -1 -6 3 -21 10 -33
12 -23 12 -23 -40 -23 -41 0 -66 8 -113 34 -55 30 -60 36 -63 70 -3 32 -1 37
15 32 10 -2 52 -15 93 -27z m217 -41 c-3 -8 -6 -5 -6 6 -1 11 2 17 5 13 3 -3
4 -12 1 -19z m-930 -40 c-2 -13 -4 -5 -4 17 -1 22 1 32 4 23 2 -10 2 -28 0
-40z m873 31 c0 -5 -10 -9 -21 -9 -18 0 -19 2 -9 15 12 15 30 12 30 -6z m-215
-47 c-3 -3 -11 0 -18 7 -9 10 -8 11 6 5 10 -3 15 -9 12 -12z m112 -58 l61 -7
6 -51 c3 -28 6 -88 6 -133 0 -82 0 -83 -25 -83 -34 0 -109 26 -182 63 -60 29
-75 48 -53 62 6 3 10 18 10 33 0 18 3 23 8 14 6 -8 9 -1 9 20 1 18 4 56 8 84
l7 51 43 -23 c24 -14 68 -27 102 -30z m123 19 c0 -15 -2 -16 -10 -3 -8 13 -10
12 -10 -3 0 -10 -4 -15 -10 -12 -18 11 -11 35 10 35 12 0 20 -7 20 -17z m-77
0 c-13 -2 -35 -2 -50 0 -16 2 -5 4 22 4 28 0 40 -2 28 -4z m-828 -171 c-9 -9
-104 40 -127 67 -18 20 -18 22 -3 9 30 -24 94 -58 110 -58 12 0 15 17 17 78
l2 77 3 -84 c2 -46 1 -86 -2 -89z m208 137 c25 -14 27 -17 13 -28 -9 -8 -16
-21 -16 -31 0 -28 -104 -111 -145 -115 l-35 -3 0 100 0 101 78 -5 c42 -2 90
-11 105 -19z m27 -114 c7 -9 11 -17 9 -19 -15 -13 -68 -34 -73 -29 -3 4 -6 2
-6 -4 0 -11 -43 -33 -67 -33 -8 0 13 23 47 50 34 28 66 50 70 50 4 0 13 -7 20
-15z m189 -127 c-12 -10 -26 -15 -32 -11 -5 3 -7 1 -4 -4 8 -13 -27 -46 -38
-36 -4 5 -5 3 -1 -4 6 -10 -21 -33 -38 -33 -13 0 -5 24 17 50 12 15 30 41 39
59 l17 31 31 -18 30 -17 -21 -17z m373 -36 c27 -2 48 -9 48 -14 0 -5 -8 -7
-17 -5 -10 3 -39 8 -65 12 -27 3 -48 10 -48 14 0 4 -6 8 -13 8 -15 0 -104 51
-113 64 -3 5 32 -9 78 -32 50 -26 102 -44 130 -47z m118 -17 c0 -9 -9 -15 -25
-15 -16 0 -25 6 -25 15 0 9 9 15 25 15 16 0 25 -6 25 -15z m-30 -86 c0 -6 -4
-7 -10 -4 -5 3 -10 11 -10 16 0 6 5 7 10 4 6 -3 10 -11 10 -16z"/>
<path d="M832 1245 c-63 -36 -129 -102 -116 -115 7 -7 18 -5 35 8 35 28 117
68 169 83 63 18 68 26 24 38 -54 15 -63 14 -112 -14z"/>
<path d="M817 1157 c-15 -7 -34 -25 -43 -42 l-15 -30 26 28 c36 38 39 34 9
-10 -16 -25 -21 -39 -13 -42 6 -2 15 2 19 8 4 8 11 3 19 -16 7 -15 23 -41 37
-57 l25 -28 43 16 c24 9 51 25 60 35 15 17 15 21 -3 65 l-20 46 21 0 c15 0 19
3 11 11 -5 5 -38 10 -72 10 -33 0 -61 5 -61 10 0 12 -9 11 -43 -4z m96 -44
c-7 -2 -19 -2 -25 0 -7 3 -2 5 12 5 14 0 19 -2 13 -5z"/>
<path d="M730 916 c0 -19 14 -28 34 -20 15 6 15 8 -1 20 -23 17 -33 17 -33 0z"/>
<path d="M880 913 c-8 -3 -35 -14 -60 -25 l-45 -19 25 -19 c48 -37 104 -18
112 39 3 25 -7 33 -32 24z"/>
<path d="M631 722 c1 -15 -2 -43 -6 -62 -5 -25 -4 -31 3 -20 6 8 9 17 6 21 -2
4 0 9 5 11 5 1 12 17 15 34 5 24 3 33 -9 37 -12 5 -15 0 -14 -21z"/>
<path d="M920 700 c-9 -6 -10 -10 -3 -10 6 0 15 5 18 10 8 12 4 12 -15 0z"/>
<path d="M740 359 c0 -5 5 -7 10 -4 6 3 10 8 10 11 0 2 -4 4 -10 4 -5 0 -10
-5 -10 -11z"/>
<path d="M955 290 c-8 -13 9 -20 24 -11 10 6 9 10 -3 14 -8 3 -18 2 -21 -3z"/>
</g>
</svg>
